<svg width="360" height="360" viewBox="0 0 360 360" fill="none" xmlns="http://www.w3.org/2000/svg">
<g filter="url(#filter0_d)">
<circle cx="210" cy="160" r="125" fill="url(#paint0_linear)"/>
</g>
<path d="M183.182 111.545C183.182 109.045 181.136 107 178.636 107C176.136 107 174.091 109.045 174.091 111.545V129.727H165V157H192.273V129.727H183.182V111.545ZM201.364 175.182C201.364 181.091 205.182 186.091 210.455 188V207H219.545V188C224.818 186.136 228.636 181.136 228.636 175.182V166.091H201.364V175.182ZM165 175.182C165 181.091 168.818 186.091 174.091 188V207H183.182V188C188.455 186.091 192.273 181.091 192.273 175.182V166.091H165V175.182ZM255.909 129.727V111.545C255.909 109.045 253.864 107 251.364 107C248.864 107 246.818 109.045 246.818 111.545V129.727H237.727V157H265V129.727H255.909ZM219.545 111.545C219.545 109.045 217.5 107 215 107C212.5 107 210.455 109.045 210.455 111.545V129.727H201.364V157H228.636V129.727H219.545V111.545ZM237.727 175.182C237.727 181.091 241.545 186.091 246.818 188V207H255.909V188C261.182 186.136 265 181.136 265 175.182V166.091H237.727V175.182Z" fill="white"/>
<defs>
<filter id="filter0_d" x="0" y="0" width="360" height="360" filterUnits="userSpaceOnUse" color-interpolation-filters="sRGB">
<feFlood flood-opacity="0" result="BackgroundImageFix"/>
<feColorMatrix in="SourceAlpha" type="matrix" values="0 0 0 0 0 0 0 0 0 0 0 0 0 0 0 0 0 0 127 0"/>
<feMorphology radius="10" operator="dilate" in="SourceAlpha" result="effect1_dropShadow"/>
<feOffset dx="-30" dy="20"/>
<feGaussianBlur stdDeviation="22.5"/>
<feColorMatrix type="matrix" values="0 0 0 0 0 0 0 0 0 0 0 0 0 0 0 0 0 0 0.68 0"/>
<feBlend mode="normal" in2="BackgroundImageFix" result="effect1_dropShadow"/>
<feBlend mode="normal" in="SourceGraphic" in2="effect1_dropShadow" result="shape"/>
</filter>
<linearGradient id="paint0_linear" x1="191" y1="177" x2="295.381" y2="75.8898" gradientUnits="userSpaceOnUse">
<stop/>
<stop offset="0.560417" stop-color="#262525" stop-opacity="0.953333"/>
<stop offset="1" stop-color="#515050" stop-opacity="0.9"/>
</linearGradient>
</defs>
</svg>
