<svg width="360" height="360" viewBox="0 0 360 360" fill="none" xmlns="http://www.w3.org/2000/svg">
<g filter="url(#filter0_d)">
<circle cx="210" cy="160" r="125" fill="url(#paint0_linear)"/>
</g>
<path d="M249.367 171.633L264 157L249.367 142.367V121.633H228.633L214 107L199.367 121.633H178.633V142.367L164 157L178.633 171.633V192.367H199.367L214 207L228.633 192.367H249.367V171.633ZM214 183.525C199.367 183.525 187.475 171.633 187.475 157C187.475 142.367 199.367 130.475 214 130.475C228.633 130.475 240.525 142.367 240.525 157C240.525 171.633 228.633 183.525 214 183.525Z" fill="white"/>
<defs>
<filter id="filter0_d" x="0" y="0" width="360" height="360" filterUnits="userSpaceOnUse" color-interpolation-filters="sRGB">
<feFlood flood-opacity="0" result="BackgroundImageFix"/>
<feColorMatrix in="SourceAlpha" type="matrix" values="0 0 0 0 0 0 0 0 0 0 0 0 0 0 0 0 0 0 127 0"/>
<feMorphology radius="10" operator="dilate" in="SourceAlpha" result="effect1_dropShadow"/>
<feOffset dx="-30" dy="20"/>
<feGaussianBlur stdDeviation="22.5"/>
<feColorMatrix type="matrix" values="0 0 0 0 0 0 0 0 0 0 0 0 0 0 0 0 0 0 0.68 0"/>
<feBlend mode="normal" in2="BackgroundImageFix" result="effect1_dropShadow"/>
<feBlend mode="normal" in="SourceGraphic" in2="effect1_dropShadow" result="shape"/>
</filter>
<linearGradient id="paint0_linear" x1="191" y1="177" x2="295.381" y2="75.8898" gradientUnits="userSpaceOnUse">
<stop/>
<stop offset="0.560417" stop-color="#262525" stop-opacity="0.953333"/>
<stop offset="1" stop-color="#515050" stop-opacity="0.9"/>
</linearGradient>
</defs>
</svg>
