<svg width="360" height="360" viewBox="0 0 360 360" fill="none" xmlns="http://www.w3.org/2000/svg">
<g filter="url(#filter0_d)">
<circle cx="210" cy="160" r="125" fill="url(#paint0_linear)"/>
</g>
<path d="M169 117H204V107H169C163.5 107 159 111.5 159 117V152H169V117ZM199 162L179 187H239L224 167L213.85 180.55L199 162ZM234 139.5C234 135.35 230.65 132 226.5 132C222.35 132 219 135.35 219 139.5C219 143.65 222.35 147 226.5 147C230.65 147 234 143.65 234 139.5ZM249 107H214V117H249V152H259V117C259 111.5 254.5 107 249 107ZM249 197H214V207H249C254.5 207 259 202.5 259 197V162H249V197ZM169 162H159V197C159 202.5 163.5 207 169 207H204V197H169V162Z" fill="white"/>
<defs>
<filter id="filter0_d" x="0" y="0" width="360" height="360" filterUnits="userSpaceOnUse" color-interpolation-filters="sRGB">
<feFlood flood-opacity="0" result="BackgroundImageFix"/>
<feColorMatrix in="SourceAlpha" type="matrix" values="0 0 0 0 0 0 0 0 0 0 0 0 0 0 0 0 0 0 127 0"/>
<feMorphology radius="10" operator="dilate" in="SourceAlpha" result="effect1_dropShadow"/>
<feOffset dx="-30" dy="20"/>
<feGaussianBlur stdDeviation="22.5"/>
<feColorMatrix type="matrix" values="0 0 0 0 0 0 0 0 0 0 0 0 0 0 0 0 0 0 0.68 0"/>
<feBlend mode="normal" in2="BackgroundImageFix" result="effect1_dropShadow"/>
<feBlend mode="normal" in="SourceGraphic" in2="effect1_dropShadow" result="shape"/>
</filter>
<linearGradient id="paint0_linear" x1="191" y1="177" x2="295.381" y2="75.8898" gradientUnits="userSpaceOnUse">
<stop/>
<stop offset="0.560417" stop-color="#262525" stop-opacity="0.953333"/>
<stop offset="1" stop-color="#515050" stop-opacity="0.9"/>
</linearGradient>
</defs>
</svg>
